<svg width="21" height="512" viewBox="0 0 21 512" fill="none" xmlns="http://www.w3.org/2000/svg">
<path d="M15.2736 8.79053L3.89856 8.79053V7.35303L14.0392 7.35303V4.17334L9.25793 4.00146C7.8621 3.93896 6.797 3.80615 6.06262 3.60303C5.32825 3.3999 4.78658 3.10303 4.43762 2.7124C4.08866 2.32178 3.90898 1.80876 3.89856 1.17334V0.73584L5.12512 0.73584L5.14075 1.00146C5.172 1.38167 5.31783 1.67855 5.57825 1.89209C5.84387 2.10563 6.26314 2.26709 6.83606 2.37646C7.40898 2.48584 8.28398 2.56396 9.46106 2.61084L15.2736 2.79834L15.2736 8.79053ZM15.2736 17.2671V18.6968L3.89856 18.6968V17.2671L12.6642 17.2671L3.89856 12.8374V11.3999L15.2736 11.3999V12.8374L6.50793 12.8374L15.2736 17.2671ZM7.50793 28.3765C6.28918 28.314 5.35689 27.9702 4.71106 27.3452C4.06523 26.7254 3.74231 25.8478 3.74231 24.7124C3.74231 23.5718 4.1746 22.6655 5.03918 21.9937C5.90898 21.3218 7.08606 20.9858 8.57043 20.9858L10.6329 20.9858C12.1121 20.9858 13.2814 21.3296 14.1407 22.0171C15.0001 22.7098 15.4298 23.6525 15.4298 24.8452C15.4298 25.9442 15.0991 26.7931 14.4376 27.3921C13.7814 27.9963 12.8413 28.3244 11.6173 28.3765L11.6173 26.9312C12.5444 26.8687 13.2059 26.6733 13.6017 26.3452C13.9975 26.0171 14.1954 25.5171 14.1954 24.8452C14.1954 24.0692 13.8907 23.4728 13.2814 23.0562C12.6772 22.6395 11.7892 22.4312 10.6173 22.4312L8.53137 22.4312C7.38033 22.4312 6.49752 22.6239 5.88293 23.0093C5.26835 23.3999 4.96106 23.9676 4.96106 24.7124C4.96106 25.4572 5.14596 25.9937 5.51575 26.3218C5.88554 26.6499 6.5496 26.853 7.50793 26.9312V28.3765ZM14.0392 36.7358V33.7437H3.89856V32.314H14.0392V29.3296H15.2736L15.2736 36.7358H14.0392ZM6.86731 43.0952V39.2515L3.89856 38.3687V36.8999L15.2736 40.564V41.7905L3.89856 45.4624L3.89856 43.9937L6.86731 43.0952ZM8.10168 39.6265V42.728L13.2736 41.1733L8.10168 39.6265ZM15.2736 52.939L15.2736 54.3687H3.89856V52.939H12.6642L3.89856 48.5093V47.0718H15.2736V48.5093H6.50793L15.2736 52.939ZM18.1017 53.0874C17.4715 53.0874 16.9637 52.8713 16.5782 52.439C16.198 52.0119 16.0079 51.4494 16.0079 50.7515C16.0079 50.0535 16.2006 49.4884 16.5861 49.0562C16.9715 48.6239 17.4767 48.4077 18.1017 48.4077V49.5874C17.7371 49.5874 17.4506 49.6864 17.2423 49.8843C17.0392 50.0822 16.9376 50.3713 16.9376 50.7515C16.9376 51.116 17.0392 51.3999 17.2423 51.603C17.4454 51.8114 17.7319 51.9155 18.1017 51.9155V53.0874ZM14.0392 63.564V60.5718H3.89856V59.1421H14.0392V56.1577H15.2736V63.564H14.0392ZM9.15637 70.6968V66.6733H5.12512V71.3608H3.89856V65.2437H15.2736L15.2736 71.2827H14.0392L14.0392 66.6733H10.3829V70.6968H9.15637ZM3.89856 76.8687H15.2736V80.1108C15.2736 81.1473 15.021 81.9259 14.5157 82.4468C14.0105 82.9728 13.2527 83.2358 12.2423 83.2358C11.7111 83.2358 11.2423 83.103 10.8361 82.8374C10.4298 82.5718 10.1147 82.2124 9.89075 81.7593C9.7345 82.2801 9.41418 82.6916 8.92981 82.9937C8.44543 83.3009 7.8621 83.4546 7.17981 83.4546C6.15898 83.4546 5.35689 83.1733 4.77356 82.6108C4.19023 82.0535 3.89856 81.2567 3.89856 80.2202V76.8687ZM9.21887 78.2983H5.12512V80.2515C5.12512 80.7931 5.30221 81.2228 5.65637 81.5405C6.01575 81.8582 6.51835 82.0171 7.16418 82.0171C8.53398 82.0171 9.21887 81.439 9.21887 80.2827V78.2983ZM10.422 78.2983V80.1343C10.422 80.6291 10.5887 81.0275 10.922 81.3296C11.2553 81.6369 11.698 81.7905 12.2501 81.7905C12.8751 81.7905 13.3282 81.6525 13.6095 81.3765C13.896 81.1004 14.0392 80.6785 14.0392 80.1108V78.2983H10.422ZM3.89856 93.0483V91.6108H9.15637V87.0327H3.89856V85.603H15.2736L15.2736 87.0327H10.3829V91.6108H15.2736V93.0483H3.89856ZM15.2736 101.455V102.884H3.89856V101.455H12.6642L3.89856 97.0249V95.5874H15.2736V97.0249H6.50793L15.2736 101.455ZM12.2189 110.212C12.8282 110.212 13.31 110.038 13.6642 109.689C14.0184 109.345 14.1954 108.866 14.1954 108.251C14.1954 107.731 14.0131 107.296 13.6486 106.947C13.284 106.603 12.8282 106.431 12.2814 106.431V105.001C13.2137 105.001 13.9715 105.311 14.5548 105.931C15.1381 106.551 15.4298 107.324 15.4298 108.251C15.4298 109.33 15.1434 110.166 14.5704 110.759C13.9975 111.353 13.2059 111.65 12.1954 111.65C11.6694 111.65 11.1902 111.512 10.7579 111.236C10.3256 110.96 9.9845 110.58 9.7345 110.095C9.28137 111.225 8.39335 111.791 7.07043 111.791C6.03918 111.791 5.22668 111.465 4.63293 110.814C4.03918 110.168 3.74231 109.314 3.74231 108.251C3.74231 107.793 3.81523 107.35 3.96106 106.923C4.1121 106.501 4.33866 106.132 4.64075 105.814C5.23971 105.179 6.04439 104.861 7.05481 104.861V106.291C6.46106 106.291 5.96366 106.473 5.56262 106.837C5.16158 107.207 4.96106 107.679 4.96106 108.251C4.96106 108.892 5.14856 109.403 5.52356 109.783C5.90377 110.168 6.40898 110.361 7.03918 110.361C8.3621 110.361 9.04179 109.728 9.07825 108.462V107.291H10.3126V108.361C10.3126 108.965 10.4767 109.423 10.8048 109.736C11.1329 110.054 11.6043 110.212 12.2189 110.212Z" fill="#B4B4B4"/>
<line x1="11.0851" y1="426.694" x2="11.0851" y2="262.94" stroke="#CCCCCC"/>
<line x1="11.0851" y1="276.586" x2="11.0851" y2="167.417" stroke="#B20102"/>
<line x1="11.0851" y1="492.195" x2="11.0851" y2="486.737" stroke="#B4B4B4"/>
<rect x="1.44727" y="480.414" width="18.9459" height="30.4911" rx="7.5" stroke="#B4B4B4"/>
</svg>
